# xmcd
#
# Track frame offsets: 
#        150
#        17437
#        34760
#        53657
#        69271
#        81615
#        94074
#        108621
#        117227
#        131693
#        146470
#
# Disc length: 2612 seconds
#
# Revision: 0
# Processed by: cddbd v1.5.2PL0 Copyright (c) Steve Scherf et al.
# Submitted via: ExactAudioCopy v1.0b1
#
DISCID=910a320b
DTITLE=Florian Mona - Florian Mona
DYEAR=2009
DGENRE=Pop
TTITLE0=Fourmis-Lions
TTITLE1=Tourne
TTITLE2=L'esquimaude
TTITLE3=Road movie
TTITLE4=Le rêveur Bostanji
TTITLE5=Toronto
TTITLE6=L'insomnie
TTITLE7=Aaaaaaah
TTITLE8=Popeline
TTITLE9=Plein Air
TTITLE10=Papillon
EXTD=
EXTT0=
EXTT1=
EXTT2=
EXTT3=
EXTT4=
EXTT5=
EXTT6=
EXTT7=
EXTT8=
EXTT9=
EXTT10=
PLAYORDER=
